<?xml version="1.0" encoding="utf-8"?>
<!-- Generator: Adobe Illustrator 23.1.0, SVG Export Plug-In . SVG Version: 6.00 Build 0)  -->
<svg version="1.1" id="Слой_1" xmlns="http://www.w3.org/2000/svg" xmlns:xlink="http://www.w3.org/1999/xlink" x="0px" y="0px"
	 viewBox="0 0 432.5 211.1" style="enable-background:new 0 0 432.5 211.1;" xml:space="preserve">
<style type="text/css">
	.st0{fill-rule:evenodd;clip-rule:evenodd;fill:#7EBD42;}
</style>
<path class="st0" d="M107.1,35.6L107.1,35.6L107.1,35.6z M104.4,92.2l3.3-27.6l2.9-24.1c0-0.3,0.1-0.5,0.1-0.8
	c0-2.1-1.6-3.9-3.6-4.2l-12-2l-12.3-2h0c-0.3-0.1-0.6-0.1-0.9-0.1c-2.2,0-4,1.7-4.2,3.8v0c-0.9,8.4-1.7,16.7-2.6,24.9l-3,28.5
	c-0.5,4.6,0,10,1.5,16c0.9,3.7,2.9,7.3,6,10.8c3,3.5,6.5,6.1,10.2,8c3.7,1.8,8.4,3.1,14,3.7c5.5,0.6,10.5,0.9,15,1
	c7.7,0.1,14.3-0.8,19.8-2.5c3.9-1.2,7.7-3.4,11.5-6.5c3.7-3,6.6-6.6,8.7-10.7c2.1-4.1,3.5-8.5,4.3-13.3l3.6-24.2l3.1-21.1v0
	c0.1-0.3,0.1-0.6,0.1-0.9c0-1.5-1.1-2.8-2.5-3.2c-0.1-0.1-0.2-0.1-0.3-0.1l-9.7-1.6c-3-0.5-6.1-1-9.2-1.5h0c-0.3,0-0.5-0.1-0.8-0.1
	c-2.1,0-3.8,1.5-4.1,3.4l0,0v0l0,0.1l0,0l0,0.2l-3,22.4l-3.5,26c-0.6,4.7-2.5,8.2-5.5,10.6c-3.1,2.4-7.1,3.5-12,3.3
	c-5.1-0.2-9-1.7-11.6-4.5C104.9,100.9,103.8,97.1,104.4,92.2L104.4,92.2z M55.4,14h13.5h7.9c9.6,0,1.6,4.2,14.8,4.6
	c6.3,0.1,12.6,0.1,18.9,0.1c6.9-0.1,7.5-6.3,7.5-7.2v-7c0-2.3,1.8-4,4.1-4.1c9.1-0.5,13.4-0.7,24.9-0.1
	c64.2,4.2,114.5,41.8,114.5,87.6c0,24.5-14.9,47-38.2,63h0c-6.2-4-14.5-4.9-21.6-4.9c-6.4,0-13,0.7-18.9,3
	c-3.7,1.4-7.2,3.4-10.4,5.8c-3.4,2.5-6.5,5.4-9,8.8c-2.5,3.3-4.4,7-5.8,10.9c-6.2,0.8-12.6,1.2-19.2,1.4
	c-12.7,10.4-29.5,19.8-51.7,27.5c6.9-10.9,11.6-21.3,14.7-30.8c-57.9-11.5-99.2-50.5-91-96c0.6-3.4,2.8-6.2,6.2-6.2h22.5h13.7
	c0.6-0.1,1.3-0.1,2-0.1c4.9-0.1,6.6-3.2,7.2-5.3l0.2-1c0.1-0.6,0.1-0.9,0.1-0.9l1.7-17.2c1.3-6.5-6.5-5.7-6.7-5.7h0h-1.6
	c-2.8,0-5.1-2.3-5.1-5.1V19.1C50.3,16.3,52.6,14,55.4,14L55.4,14z M177.3,127.3c-3.3-0.2-6.1-1.3-8-3c-1.8-1.7-2.7-4-2.1-6.5
	c0.6-2.5,2.5-4.6,5.1-6c2.6-1.4,5.8-2.2,9.1-1.9c3.3,0.3,5.9,1.5,7.7,3.2c1.7,1.7,2.5,3.9,2,6.3c-0.5,2.4-2.3,4.5-4.8,5.9
	C183.7,126.6,180.6,127.5,177.3,127.3L177.3,127.3z M182.3,105.7L182.3,105.7c4.5,0.4,7.4-0.1,9.5-1.5c2.1-1.3,3.3-3.4,4.3-6.2
	c2.2-6.7,4.5-13.4,6.7-20.1c2.2-6.6,4.4-13.2,6.6-19.8c1.8-5.5-5.4-9.7-13.4-11.3c-8.3-1.6-17.5-0.3-18.3,5.7
	c-0.9,7.2-1.8,14.3-2.8,21.4c-0.9,7.1-1.8,14.3-2.7,21.5c-0.4,3-0.1,5.3,1.4,7C175,104.3,177.7,105.3,182.3,105.7L182.3,105.7z
	 M4.2,38.6c-2.3,0-4.2,1.9-4.2,4.2v3.9c0,2.3,1.9,4.2,4.2,4.2h9c2.3,0,4.2-1.9,4.2-4.2v-3.9c0-2.3-1.9-4.2-4.2-4.2H4.2L4.2,38.6z
	 M99,0.1c-2.6,0-4.7,2.1-4.7,4.7v4.4c0,2.6,2.1,4.7,4.7,4.7h10c2.6,0,4.7-2.1,4.7-4.7V4.8c0-2.6-2.1-4.7-4.7-4.7H99L99,0.1z
	 M27.4,20.5c-2.8,0-5.1,2.3-5.1,5.1v4.8c0,2.8,2.3,5.1,5.1,5.1h10.9c2.8,0,5.1-2.3,5.1-5.1v-4.8c0-2.8-2.3-5.1-5.1-5.1H27.4
	L27.4,20.5z M31.5,44.1c-2.8,0-5.1,2.3-5.1,5.1v9.6c0,2.8,2.3,5.1,5.1,5.1H48c2.8,0,5.1-2.3,5.1-5.1v-9.6c0-2.8-2.3-5.1-5.1-5.1
	H31.5L31.5,44.1z M204.6,187.5c-1.7,3-3.7,5.3-6,6.7c-2.3,1.5-4.9,2.2-7.7,2.2c-3.4,0-6-1.2-7.5-3.6c-1.6-2.4-1.8-6-0.7-10.7
	c1.3-5.2,3.4-9.2,6.3-11.7c2.9-2.6,6.1-3.9,9.7-3.9c2.9,0,5,0.6,6.4,1.8c1.4,1.2,2.1,3,2.2,5.5l21.2-2.7c-0.4-6.4-2.6-11.3-6.6-14.5
	c-4-3.3-10.7-5-20-5c-6.6,0-12.3,0.9-17,2.6c-3,1.1-6,2.8-9.1,5.1c-3.1,2.3-5.7,4.8-7.9,7.7c-3,3.9-5.2,8.8-6.6,14.6
	c-1.4,5.6-1.7,10.1-0.9,13.5c0.8,3.4,2.3,6.3,4.6,8.8c2.3,2.5,5.3,4.3,9,5.5c3.7,1.1,8.6,1.7,14.6,1.7c6.2,0,11.6-0.9,16.1-2.6
	c4.5-1.8,8.4-4.2,11.8-7.4c3.4-3.2,6.2-6.9,8.4-11.2L204.6,187.5L204.6,187.5z M234.1,181.5c-2.3,9.3-0.7,16.8,4.8,22.6
	c4.5,4.6,11.3,7,20.4,7c10.2,0,19-2.8,26.1-8.4c7.2-5.6,11.8-12.7,14-21.5c1.9-7.8,1.2-14.3-2.2-19.6c-4.2-6.6-12-9.9-23.3-9.9
	c-10,0-18.5,2.8-25.8,8.4C240.9,165.7,236.2,172.8,234.1,181.5L234.1,181.5z M255.9,181.4c-1.3,5.1-1.2,8.8,0.3,11.2
	c1.4,2.4,3.7,3.7,6.8,3.7c3.1,0,6-1.2,8.6-3.6c2.6-2.4,4.6-6.2,5.9-11.5c1.2-4.9,1.1-8.6-0.3-11c-1.4-2.4-3.7-3.6-6.7-3.6
	c-3.2,0-6.1,1.2-8.8,3.7C259.1,172.7,257.1,176.4,255.9,181.4L255.9,181.4z M317.1,152.9h20.3l-2,8.3c3.8-3.5,7.3-5.9,10.7-7.4
	c3.3-1.5,7.1-2.2,11.3-2.2c4.5,0,7.9,0.8,10.1,2.4c2.3,1.6,3.8,4,4.7,7.2c4.3-3.7,8.1-6.2,11.2-7.6c3.1-1.3,6.8-2,10.9-2
	c6.1,0,10.4,1.8,12.9,5.4c2.5,3.6,2.8,9.3,0.9,17l-8.8,35.7h-21.8l8-32.3c0.6-2.6,0.6-4.5-0.1-5.7c-1-2-2.6-2.9-4.7-2.9
	c-2.6,0-4.9,0.9-6.9,2.8c-2,1.9-3.5,4.8-4.5,9l-7.3,29.3h-21.8l7.8-31.3c0.6-2.5,0.9-4.2,0.8-5.1c-0.1-1.4-0.6-2.6-1.5-3.5
	c-0.9-0.9-2.2-1.3-3.7-1.3c-2.5,0-4.8,1-6.8,2.8c-2.1,1.9-3.7,5-4.7,9.3l-7.2,29H303L317.1,152.9L317.1,152.9z M403.9,134.9
	c0-1.3,0.2-2.6,0.5-3.8c0.3-1.2,0.8-2.4,1.5-3.4c0.6-1.1,1.4-2,2.2-2.9c0.9-0.9,1.8-1.6,2.9-2.3s2.2-1.1,3.4-1.5
	c1.2-0.3,2.5-0.5,3.8-0.5s2.6,0.2,3.8,0.5c1.2,0.3,2.4,0.8,3.4,1.5s2,1.4,2.9,2.3c0.9,0.9,1.6,1.8,2.3,2.9c0.6,1.1,1.1,2.2,1.4,3.4
	c0.3,1.2,0.5,2.5,0.5,3.8c0,1.3-0.2,2.6-0.5,3.8c-0.3,1.2-0.8,2.4-1.4,3.4s-1.4,2-2.3,2.9s-1.8,1.6-2.9,2.3s-2.2,1.1-3.4,1.5
	s-2.5,0.5-3.8,0.5s-2.6-0.2-3.8-0.5c-1.2-0.3-2.4-0.8-3.4-1.5c-1.1-0.6-2-1.4-2.9-2.3c-0.9-0.9-1.6-1.8-2.2-2.9
	c-0.6-1.1-1.1-2.2-1.5-3.4C404.1,137.4,403.9,136.2,403.9,134.9L403.9,134.9z M405.9,134.9c0,1.2,0.1,2.3,0.4,3.4s0.7,2.1,1.2,3
	c0.5,0.9,1.2,1.8,1.9,2.5c0.7,0.8,1.6,1.4,2.5,2c0.9,0.5,1.9,1,3,1.3c1.1,0.3,2.2,0.4,3.3,0.4c1.7,0,3.3-0.3,4.9-1
	c1.5-0.7,2.8-1.5,4-2.7s2-2.5,2.7-4c0.7-1.5,1-3.2,1-4.9c0-1.2-0.1-2.3-0.4-3.4c-0.3-1.1-0.7-2.1-1.3-3c-0.5-0.9-1.2-1.8-1.9-2.6
	c-0.8-0.8-1.6-1.4-2.5-2c-0.9-0.5-1.9-1-3-1.3c-1.1-0.3-2.2-0.5-3.3-0.5c-1.7,0-3.3,0.3-4.8,1c-1.5,0.7-2.8,1.6-3.9,2.7
	c-1.1,1.1-2,2.5-2.6,4C406.2,131.5,405.9,133.1,405.9,134.9L405.9,134.9z M415.4,136.6h1.6c0.3,0,0.6,0,0.8,0.1s0.3,0.2,0.4,0.4
	l4,5.9c0.2,0.3,0.5,0.5,1,0.5h2.9l-4.5-6.5c-0.1-0.3-0.3-0.5-0.5-0.7c-0.2-0.2-0.4-0.4-0.6-0.5c1.4-0.3,2.4-0.9,3.1-1.8
	c0.7-0.9,1-1.9,1-3.2c0-1.6-0.5-2.8-1.6-3.6c-1.1-0.8-2.8-1.2-5-1.2h-5.7v17.5h3.1L415.4,136.6L415.4,136.6z M415.4,134.4h2.3
	c0.7,0,1.3-0.1,1.8-0.2c0.5-0.1,0.9-0.3,1.2-0.6c0.3-0.3,0.5-0.6,0.7-1c0.1-0.4,0.2-0.8,0.2-1.3c0-0.5-0.1-0.9-0.2-1.3
	c-0.1-0.4-0.3-0.7-0.6-0.9c-0.3-0.2-0.7-0.4-1.1-0.5c-0.5-0.1-1-0.2-1.7-0.2h-2.6L415.4,134.4L415.4,134.4z"/>
</svg>
